<?xml version="1.0" encoding="UTF-8"?>
<svg width="46.28mm" height="7.2136mm" version="1.1" viewBox="0 0 46.28 7.2136" xmlns="http://www.w3.org/2000/svg">
 <g transform="translate(-135.16 -74.058)">
  <g transform="translate(-4.744 -6.7486)" style="font-feature-settings:normal;font-variant-caps:normal;font-variant-ligatures:normal;font-variant-numeric:normal" aria-label="PODBASE">
   <g fill="#fff">
    <g stroke-width=".26458">
     <path d="m141.37 85.559v2.2691q-0.1016 0.02258-0.29351 0.05645-0.18062 0.03387-0.39511 0.03387-0.42898 0-0.6096-0.15804-0.16934-0.15804-0.16934-0.53058v-5.667q0-0.21449 0.11289-0.32738t0.31609-0.18062q0.18062-0.05644 0.39511-0.1016 0.22578-0.04516 0.46285-0.06773 0.23706-0.03387 0.47413-0.04516t0.45156-0.01129q1.4901 0 2.2352 0.64347 0.75635 0.63218 0.75635 1.7159t-0.73378 1.7272q-0.73377 0.64347-2.1223 0.64347zm0.79022-1.174q0.67734 0 1.0612-0.29351 0.39511-0.29351 0.39511-0.90311 0-0.58702-0.37253-0.88053-0.36125-0.29351-1.0612-0.29351-0.48542 0-0.82409 0.06773v2.3029z" style="font-feature-settings:normal;font-variant-caps:normal;font-variant-ligatures:normal;font-variant-numeric:normal"/>
     <path d="m152.88 84.408q0 0.88053-0.25965 1.5579-0.25964 0.67733-0.72249 1.1402-0.45155 0.45156-1.0837 0.68862-0.63218 0.22578-1.366 0.22578-0.73378 0-1.366-0.22578-0.63218-0.23707-1.095-0.68862-0.45156-0.46284-0.7112-1.1402-0.25965-0.67733-0.25965-1.5579t0.25965-1.5466q0.27093-0.67733 0.73378-1.1289 0.46284-0.46284 1.0837-0.68862 0.63218-0.23707 1.3547-0.23707 0.72248 0 1.3434 0.23707 0.63218 0.22578 1.095 0.68862 0.46284 0.45156 0.72248 1.1289 0.27094 0.66604 0.27094 1.5466zm-1.5014 0q0-1.174-0.53058-1.7836-0.51929-0.62089-1.3998-0.62089-0.86925 0-1.3998 0.6096-0.51929 0.6096-0.51929 1.7949t0.51929 1.7949 1.3998 0.6096q0.88053 0 1.3998-0.6096 0.53058-0.6096 0.53058-1.7949z" style="font-feature-settings:normal;font-variant-caps:normal;font-variant-ligatures:normal;font-variant-numeric:normal"/>
     <path d="m158.81 84.385q0-0.6096-0.16933-1.0499-0.16933-0.45156-0.47413-0.73378-0.29352-0.29351-0.7112-0.42898-0.4064-0.14676-0.89183-0.14676-0.25964 0-0.47413 0.02258-0.2032 0.01129-0.39511 0.03387v4.6397q0.19191 0.04516 0.42898 0.06773 0.24835 0.01129 0.48542 0.01129 1.0499 0 1.6256-0.6096t0.57573-1.8062zm1.5014-0.01129q0 0.9144-0.27093 1.603-0.25964 0.67733-0.74507 1.1289-0.48542 0.44027-1.174 0.66604-0.67733 0.22578-1.5127 0.22578-0.19191 0-0.41769-0.01129-0.22578 0-0.47413-0.03387-0.23707-0.02258-0.48543-0.06773-0.23706-0.04516-0.45155-0.12418-0.54187-0.2032-0.54187-0.67733v-5.5316q0-0.2032 0.11289-0.31609t0.31609-0.18062q0.41769-0.14676 0.90311-0.18062 0.49671-0.04516 0.93698-0.04516 0.84667 0 1.5466 0.22578 0.7112 0.21449 1.2079 0.65476 0.49671 0.44027 0.76764 1.1063 0.28222 0.66604 0.28222 1.5579z" style="font-feature-settings:normal;font-variant-caps:normal;font-variant-ligatures:normal;font-variant-numeric:normal"/>
     <path d="m166.9 82.748q0 0.508-0.27094 0.88053-0.25964 0.37253-0.79022 0.59831 0.65476 0.21449 0.98214 0.64347 0.32737 0.42898 0.32737 1.016 0 1.0724-0.77893 1.5917t-2.2578 0.51929q-0.21449 0-0.46284-0.01129-0.23707-0.01129-0.48542-0.04516-0.24836-0.02258-0.49672-0.07902-0.24835-0.04516-0.46284-0.11289-0.54187-0.18062-0.54187-0.66604v-5.5203q0-0.21449 0.11289-0.32738t0.31609-0.18062q0.38382-0.12418 0.89182-0.16933 0.508-0.05645 1.0612-0.05645 1.366 0 2.111 0.47413 0.74507 0.46284 0.74507 1.445zm-1.2418 3.0819q0-0.45156-0.32738-0.7112-0.31609-0.25964-0.92569-0.25964h-1.3208v1.8852q0.21449 0.05644 0.508 0.07902 0.3048 0.02258 0.59831 0.02258 0.68863 0 1.0724-0.23707 0.39511-0.24836 0.39511-0.77893zm-2.5739-2.0433h1.1402q0.6096 0 0.90311-0.24836 0.3048-0.24836 0.3048-0.68862 0-0.89182-1.3772-0.89182-0.28222 0-0.54187 0.02258-0.24835 0.02258-0.42898 0.05644z" style="font-feature-settings:normal;font-variant-caps:normal;font-variant-ligatures:normal;font-variant-numeric:normal"/>
     <path d="m172.37 86.225h-2.5287q-0.12418 0.41769-0.27093 0.86924-0.13547 0.45156-0.22578 0.74507-0.11289 0.04516-0.24835 0.07902-0.12418 0.03387-0.31609 0.03387-0.38383 0-0.59831-0.14676-0.21449-0.15804-0.21449-0.44027 0-0.13547 0.0339-0.25964 0.0452-0.13547 0.1016-0.3048 0.0903-0.31609 0.23707-0.75636 0.15804-0.45156 0.32738-0.97084 0.18062-0.53058 0.38382-1.0837 0.2032-0.56444 0.38382-1.0837 0.19191-0.53058 0.36125-0.98213 0.18062-0.46284 0.3048-0.79022 0.14675-0.07902 0.42897-0.15804 0.29352-0.07902 0.58703-0.07902 0.39511 0 0.72249 0.12418 0.32737 0.11289 0.41768 0.37253 0.22578 0.62089 0.49672 1.4337 0.27093 0.80151 0.54186 1.6595 0.28222 0.85796 0.54187 1.682 0.25964 0.82409 0.46284 1.4788-0.11289 0.12418-0.31609 0.2032-0.19191 0.09031-0.46284 0.09031-0.39511 0-0.56444-0.13547-0.15805-0.14676-0.24836-0.45156zm-1.2644-4.0414q-0.1016 0.28222-0.22578 0.63218-0.11289 0.34996-0.24836 0.73378-0.12417 0.37253-0.25964 0.76764-0.13547 0.38382-0.25964 0.75636h1.9643l-0.9144-2.89z" style="font-feature-settings:normal;font-variant-caps:normal;font-variant-ligatures:normal;font-variant-numeric:normal"/>
     <path d="m177.4 86.812q0.65476 0 0.95956-0.24836 0.3048-0.25964 0.3048-0.64347 0-0.34996-0.23707-0.55316-0.23707-0.21449-0.72249-0.36124l-0.72249-0.22578q-0.42897-0.13547-0.77893-0.3048-0.34996-0.16933-0.59831-0.39511-0.24836-0.23707-0.38382-0.54187-0.13547-0.31609-0.13547-0.74507 0-0.9144 0.68862-1.445 0.68862-0.54187 1.8852-0.54187 0.47413 0 0.86924 0.07902 0.4064 0.06773 0.69991 0.2032 0.29351 0.12418 0.45156 0.31609 0.16933 0.19191 0.16933 0.42898 0 0.22578-0.11289 0.39511-0.1016 0.15804-0.25964 0.25964-0.27094-0.19191-0.72249-0.32738-0.44027-0.14676-0.97085-0.14676-0.58702 0-0.89182 0.21449-0.3048 0.2032-0.3048 0.56444 0 0.29351 0.2032 0.45156 0.21449 0.15804 0.66605 0.3048l0.64346 0.2032q0.98214 0.29351 1.524 0.80151 0.54187 0.508 0.54187 1.3772 0 0.46284-0.18062 0.84667-0.18062 0.38382-0.53058 0.66604-0.33867 0.27093-0.85796 0.41769-0.508 0.15804-1.1628 0.15804-0.51929 0-0.95956-0.09031-0.42897-0.09031-0.74506-0.23707-0.31609-0.15804-0.49671-0.36124-0.16934-0.21449-0.16934-0.46284 0-0.25964 0.14676-0.44027 0.15804-0.19191 0.36124-0.28222 0.28222 0.24836 0.74507 0.46284 0.46284 0.2032 1.0837 0.2032z" style="font-feature-settings:normal;font-variant-caps:normal;font-variant-ligatures:normal;font-variant-numeric:normal"/>
     <path d="m182.24 87.862q-0.36125 0-0.57573-0.21449-0.2032-0.21449-0.2032-0.57573v-5.3058q0-0.36124 0.2032-0.56444 0.21448-0.21449 0.57573-0.21449h3.7366q0.0564 0.09031 0.1016 0.23707t0.0452 0.32738q0 0.29351-0.13547 0.45156-0.13547 0.15804-0.37253 0.15804h-2.7319v1.603h2.7545q0.0565 0.09031 0.1016 0.23707 0.0565 0.13547 0.0565 0.31609 0 0.6096-0.51929 0.6096h-2.3932v1.7498h3.1383q0.0564 0.09031 0.1016 0.24836 0.0564 0.14676 0.0564 0.32738 0 0.6096-0.51929 0.6096h-3.4205z" style="font-feature-settings:normal;font-variant-caps:normal;font-variant-ligatures:normal;font-variant-numeric:normal"/>
    </g>
    <circle cx="149.44" cy="84.413" r=".7517"/>
   </g>
  </g>
 </g>
</svg>
